<svg width="680" height="680" viewBox="0 0 680 680" xmlns="http://www.w3.org/2000/svg">
<defs>
<clipPath id="round"><rect x="0" y="0" width="680" height="680" rx="24"/></clipPath>
<linearGradient id="sky" x1="0" y1="0" x2="0" y2="1">
<stop offset="0%" stop-color="#1c1a17"/>
<stop offset="100%" stop-color="#2b2620"/>
</linearGradient>
</defs>
<g clip-path="url(#round)">
<rect x="0" y="0" width="680" height="680" fill="url(#sky)"/>

<g fill="#D7C29D" opacity="0.9">
<rect x="90" y="470" width="70" height="150"/>
<rect x="175" y="410" width="60" height="210"/>
<rect x="250" y="500" width="55" height="120"/>
<rect x="320" y="360" width="80" height="260"/>
<rect x="415" y="440" width="60" height="180"/>
<rect x="490" y="390" width="70" height="230"/>
<rect x="575" y="490" width="60" height="130"/>
</g>

<g fill="#2b2620">
<rect x="105" y="490" width="12" height="16"/><rect x="133" y="490" width="12" height="16"/>
<rect x="105" y="525" width="12" height="16"/><rect x="133" y="525" width="12" height="16"/>
<rect x="105" y="560" width="12" height="16"/><rect x="133" y="560" width="12" height="16"/>
<rect x="190" y="430" width="12" height="16"/><rect x="208" y="430" width="12" height="16"/>
<rect x="190" y="465" width="12" height="16"/><rect x="208" y="465" width="12" height="16"/>
<rect x="190" y="500" width="12" height="16"/><rect x="208" y="500" width="12" height="16"/>
<rect x="335" y="385" width="14" height="18"/><rect x="358" y="385" width="14" height="18"/>
<rect x="335" y="425" width="14" height="18"/><rect x="358" y="425" width="14" height="18"/>
<rect x="335" y="465" width="14" height="18"/><rect x="358" y="465" width="14" height="18"/>
<rect x="505" y="415" width="12" height="16"/><rect x="530" y="415" width="12" height="16"/>
<rect x="505" y="450" width="12" height="16"/><rect x="530" y="450" width="12" height="16"/>
<rect x="505" y="485" width="12" height="16"/><rect x="530" y="485" width="12" height="16"/>
</g>

<line x1="360" y1="300" x2="360" y2="360" stroke="#D7C29D" stroke-width="2"/>
<line x1="360" y1="300" x2="450" y2="300" stroke="#D7C29D" stroke-width="2"/>
<line x1="450" y1="300" x2="435" y2="315" stroke="#D7C29D" stroke-width="2"/>
<line x1="450" y1="300" x2="450" y2="330" stroke="#D7C29D" stroke-width="1.5" stroke-dasharray="3 4"/>
<rect x="444" y="330" width="12" height="10" fill="#D7C29D"/>

<text x="340" y="215" text-anchor="middle" font-family="Georgia, 'Times New Roman', serif" font-size="88" fill="#f5efe4" font-style="italic">BTP</text>
<rect x="300" y="245" width="80" height="3" fill="#D7C29D"/>
<text x="340" y="290" text-anchor="middle" font-family="Georgia, 'Times New Roman', serif" font-size="26" fill="#D7C29D" letter-spacing="6">BIENTÔT</text>
</g>
</svg>