<svg width="680" height="680" viewBox="0 0 680 680" xmlns="http://www.w3.org/2000/svg">
<defs>
<clipPath id="round2"><rect x="0" y="0" width="680" height="680" rx="24"/></clipPath>
<linearGradient id="bg2" x1="0" y1="0" x2="0" y2="1">
<stop offset="0%" stop-color="#1c1a17"/>
<stop offset="100%" stop-color="#2b2620"/>
</linearGradient>
</defs>
<g clip-path="url(#round2)">
<rect x="0" y="0" width="680" height="680" fill="url(#bg2)"/>

<g fill="#D7C29D" opacity="0.9">
<rect x="120" y="530" width="52" height="90"/>
<rect x="192" y="470" width="52" height="150"/>
<rect x="264" y="500" width="52" height="120"/>
<rect x="336" y="420" width="52" height="200"/>
<rect x="408" y="450" width="52" height="170"/>
<rect x="480" y="380" width="52" height="240"/>
</g>

<g fill="#2b2620">
<rect x="134" y="552" width="24" height="4"/>
<rect x="206" y="492" width="24" height="4"/>
<rect x="278" y="522" width="24" height="4"/>
<rect x="350" y="442" width="24" height="4"/>
<rect x="422" y="472" width="24" height="4"/>
<rect x="494" y="402" width="24" height="4"/>
</g>

<polyline points="146,505 218,445 290,475 362,395 434,425 506,355" fill="none" stroke="#f5efe4" stroke-width="2.5" stroke-linejoin="round" stroke-linecap="round" opacity="0.85"/>
<circle cx="146" cy="505" r="5" fill="#f5efe4"/>
<circle cx="218" cy="445" r="5" fill="#f5efe4"/>
<circle cx="290" cy="475" r="5" fill="#f5efe4"/>
<circle cx="362" cy="395" r="5" fill="#f5efe4"/>
<circle cx="434" cy="425" r="5" fill="#f5efe4"/>
<circle cx="506" cy="355" r="6" fill="#f5efe4"/>

<line x1="100" y1="620" x2="580" y2="620" stroke="#D7C29D" stroke-width="2" opacity="0.6"/>

<g stroke="#D7C29D" stroke-width="2" fill="none" opacity="0.75">
<path d="M 196 300 h 54 l 18 18 v 68 h -72 z"/>
<path d="M 250 300 v 18 h 18"/>
</g>
<g fill="#D7C29D" opacity="0.6">
<rect x="208" y="330" width="42" height="4"/>
<rect x="208" y="344" width="42" height="4"/>
<rect x="208" y="358" width="26" height="4"/>
</g>

<g stroke="#D7C29D" stroke-width="2" fill="none" opacity="0.75">
<ellipse cx="466" cy="312" rx="26" ry="9"/>
<path d="M 440 312 v 22 c 0 5 12 9 26 9 s 26 -4 26 -9 v -22"/>
<path d="M 440 334 v 22 c 0 5 12 9 26 9 s 26 -4 26 -9 v -22"/>
</g>

<text x="340" y="205" text-anchor="middle" font-family="Georgia, 'Times New Roman', serif" font-size="72" fill="#f5efe4" font-style="italic">Compta AI</text>
<rect x="300" y="235" width="80" height="3" fill="#D7C29D"/>
<text x="340" y="272" text-anchor="middle" font-family="Georgia, 'Times New Roman', serif" font-size="24" fill="#D7C29D" letter-spacing="6">BIENTÔT</text>
</g>
</svg>