<?xml version="1.0" encoding="UTF-8"?>
<svg id="Layer_2" data-name="Layer 2" xmlns="http://www.w3.org/2000/svg" xmlns:xlink="http://www.w3.org/1999/xlink" viewBox="0 0 2533.74 1199.73">
  <defs>
    <style>
      .cls-1 {
        fill: url(#linear-gradient-4);
      }

      .cls-2 {
        fill: url(#linear-gradient-3);
      }

      .cls-3 {
        fill: url(#linear-gradient-2);
      }

      .cls-4 {
        fill: url(#linear-gradient);
      }

      .cls-5 {
        fill: #fff;
      }
    </style>
    <linearGradient id="linear-gradient" x1="451.08" y1="607.3" x2="142.23" y2="975.36" gradientTransform="translate(0 1608.94) scale(1 -1)" gradientUnits="userSpaceOnUse">
      <stop offset="0" stop-color="#285ffd"/>
      <stop offset=".2" stop-color="#2763fd"/>
      <stop offset=".4" stop-color="#276ffd"/>
      <stop offset=".61" stop-color="#2684fd"/>
      <stop offset=".82" stop-color="#25a1fe"/>
      <stop offset="1" stop-color="#24c0ff"/>
    </linearGradient>
    <linearGradient id="linear-gradient-2" x1="92.15" y1="713.13" x2="329.36" y2="1598.25" gradientTransform="translate(0 1608.94) scale(1 -1)" gradientUnits="userSpaceOnUse">
      <stop offset="0" stop-color="#285ffd"/>
      <stop offset="1" stop-color="#24c0ff"/>
    </linearGradient>
    <linearGradient id="linear-gradient-3" x1="3154.23" y1="-443.1" x2="2845.39" y2="-75.04" gradientTransform="translate(3657.12 641.3) rotate(-180) scale(1 -1)" xlink:href="#linear-gradient"/>
    <linearGradient id="linear-gradient-4" x1="2795.32" y1="-337.28" x2="3032.42" y2="547.74" gradientTransform="translate(3657.12 641.3) rotate(-180) scale(1 -1)" gradientUnits="userSpaceOnUse">
      <stop offset="0" stop-color="#285ffd"/>
      <stop offset="1" stop-color="#24c0ff"/>
    </linearGradient>
  </defs>
  <g id="logo">
    <g id="text">
      <g>
        <path class="cls-5" d="M1443.95,443.43h67.14c-1.79,23.77-8.38,44.8-19.78,63.11-11.39,18.31-27.26,32.68-47.61,43.09-20.35,10.42-45.01,15.62-73.97,15.62-22.3,0-42.36-3.95-60.18-11.84s-33.04-19.2-45.65-33.94c-12.62-14.73-22.26-32.47-28.93-53.22-6.68-20.75-10.01-44.07-10.01-69.95v-27.1c0-25.88,3.42-49.23,10.25-70.07,6.84-20.83,16.64-38.61,29.42-53.34,12.78-14.73,28.16-26.08,46.14-34.06,17.98-7.97,38.12-11.96,60.42-11.96,28.97,0,53.47,5.33,73.49,15.99,20.02,10.66,35.56,25.27,46.63,43.82,11.07,18.55,17.74,39.88,20.02,63.96h-67.14c-1.3-14.97-4.52-27.67-9.64-38.09-5.13-10.41-12.78-18.35-22.95-23.8-10.17-5.45-23.64-8.18-40.41-8.18-13.02,0-24.46,2.44-34.3,7.32-9.85,4.88-18.03,12.17-24.54,21.85-6.51,9.69-11.39,21.73-14.65,36.13-3.26,14.4-4.88,31.05-4.88,49.93v27.59c0,18.07,1.46,34.26,4.39,48.58,2.93,14.32,7.48,26.45,13.67,36.38,6.18,9.93,14.16,17.5,23.93,22.71,9.77,5.21,21.4,7.81,34.91,7.81,16.44,0,29.82-2.6,40.16-7.81,10.33-5.21,18.23-12.86,23.68-22.95,5.45-10.09,8.91-22.62,10.38-37.6Z"/>
        <path class="cls-5" d="M1877.85,415.84c-6.19-12.53-15.75-22.79-28.69-30.76-6.27-3.87-13.42-6.8-21.48-8.84,3.43-1.37,6.69-2.9,9.76-4.59,13.92-7.65,24.25-17.62,31.01-29.91,6.75-12.28,10.13-25.75,10.13-40.4,0-16.6-2.89-30.92-8.67-42.97-5.78-12.04-14.2-22.05-25.26-30.03-11.08-7.97-24.54-13.87-40.41-17.7-15.87-3.82-33.9-5.74-54.08-5.74h-122.31v355.47h133.3c26.69,0,49.44-3.91,68.24-11.72,18.79-7.81,33.11-19.45,42.96-34.91,9.85-15.46,14.78-34.58,14.78-57.37,0-14.49-3.1-28-9.28-40.53ZM1694.99,257.88h55.17c14,0,25.55,1.67,34.67,5.01,9.11,3.33,15.83,8.58,20.14,15.74,4.31,7.17,6.47,16.44,6.47,27.83,0,10.26-2.32,18.97-6.96,26.13-4.64,7.16-11.43,12.61-20.38,16.36-8.95,3.74-20.11,5.61-33.45,5.61h-55.66v-96.68ZM1813.76,482.86c-4.31,7.73-10.83,13.79-19.53,18.18-8.71,4.4-19.74,6.6-33.08,6.6h-66.16v-105.72h69.09c13.34,0,24.13,2.2,32.35,6.6,8.21,4.39,14.24,10.66,18.06,18.79,3.83,8.14,5.74,17.75,5.74,28.81,0,10.1-2.16,19.01-6.47,26.74Z"/>
        <path class="cls-5" d="M2063.7,204.9l71.04,126.71,71.29-126.71h77.15l-105.47,176.27,108.15,179.2h-77.88l-73.24-129.15-73,129.15h-78.12l108.15-179.2-105.47-176.27h77.39Z"/>
      </g>
      <g>
        <path class="cls-5" d="M1154.41,690.45h-34.72l-103.05,319.92h41.31l25.11-83.71h107.98l25.11,83.71h41.31l-103.05-319.92ZM1093.47,891.94l43.58-145.31,43.58,145.31h-87.16Z"/>
        <path class="cls-5" d="M1360.31,981.59c7.76,0,14.83-1.57,21.2-4.72,6.37-3.15,11.61-8.13,15.71-14.94,4.1-6.81,6.44-15.71,7.03-26.7h36.47c-.59,15.82-4.58,29.7-11.98,41.64-7.4,11.94-17.07,21.24-29,27.9-11.94,6.66-25.09,10-39.44,10-15.38,0-28.75-2.49-40.1-7.47-11.35-4.98-20.73-12.2-28.12-21.64-7.4-9.45-12.93-20.95-16.59-34.5-3.66-13.55-5.49-28.97-5.49-46.25v-26.81c0-17.28,1.83-32.7,5.49-46.25,3.66-13.55,9.19-25.05,16.59-34.5,7.4-9.45,16.77-16.66,28.12-21.64,11.35-4.98,24.72-7.47,40.1-7.47s30.06,3.41,41.86,10.22c11.79,6.81,21.02,16.63,27.69,29.44,6.66,12.82,10.29,28.31,10.88,46.47h-36.47c-.59-11.72-2.71-21.5-6.37-29.33-3.66-7.83-8.65-13.69-14.94-17.58-6.3-3.88-13.84-5.82-22.63-5.82-10.25,0-18.71,1.8-25.38,5.38-6.67,3.59-11.9,8.75-15.71,15.49-3.81,6.74-6.48,14.8-8.02,24.17-1.54,9.38-2.31,19.85-2.31,31.42v26.81c0,11.57.77,22.08,2.31,31.53,1.54,9.45,4.17,17.54,7.91,24.28,3.74,6.74,8.97,11.9,15.71,15.49,6.74,3.59,15.23,5.38,25.49,5.38Z"/>
        <path class="cls-5" d="M1624.99,983.79c-1.25-8.94-1.87-17.36-1.87-25.27v-117.34c0-17.72-3.22-31.93-9.67-42.62-6.44-10.7-15.31-18.42-26.58-23.19-11.28-4.75-24.25-7.14-38.9-7.14-12.3,0-23.4,2.02-33.28,6.05-9.89,4.03-18.35,9.44-25.38,16.26-7.03,6.81-12.42,14.39-16.15,22.74-3.74,8.35-5.6,16.77-5.6,25.27h38.89c0-6.74,1.57-12.89,4.72-18.46,3.15-5.57,7.69-10.03,13.62-13.4,5.94-3.37,13-5.06,21.21-5.06s15.56,1.32,21.2,3.96c5.64,2.63,9.89,6.81,12.74,12.52,2.86,5.71,4.29,13.26,4.29,22.63v25.49h-26.81c-15.53,0-29.19,1.98-40.98,5.93-11.79,3.96-21.57,9.49-29.33,16.59-7.77,7.11-13.62,15.49-17.58,25.16-3.95,9.67-5.93,20.22-5.93,31.64,0,15.09,2.86,27.76,8.57,38.02,5.71,10.25,13.73,18.01,24.06,23.29,10.33,5.27,22.37,7.91,36.14,7.91,9.38,0,17.84-1.95,25.38-5.83,7.54-3.88,14.1-8.86,19.67-14.94,2.83-3.09,5.34-6.25,7.55-9.49.22,2.31.48,4.66.8,7.07,1.02,7.84,2.49,14.11,4.39,18.79h40.21v-3.51c-2.34-6.45-4.14-14.14-5.38-23.07ZM1564.23,972.58c-7.47,4.54-16.11,6.81-25.92,6.81-8.06,0-14.72-1.24-20-3.73-5.27-2.49-9.23-6.56-11.86-12.2-2.64-5.64-3.96-13.22-3.96-22.74,0-7.32,1.43-13.84,4.29-19.56,2.85-5.71,6.99-10.51,12.41-14.39,5.42-3.88,11.9-6.85,19.45-8.9,7.54-2.05,15.93-3.07,25.15-3.07h20.44v56.93c-.73,1.44-1.57,2.89-2.53,4.37-4.17,6.45-10,11.94-17.47,16.48Z"/>
        <path class="cls-5" d="M1789.91,672.87v123.15c-5.84-8.8-12.98-15.57-21.42-20.32-8.87-4.97-19.45-7.47-31.75-7.47s-22.71,2.2-32.52,6.6c-9.82,4.39-18.24,11.17-25.27,20.32-7.03,9.16-12.45,20.8-16.26,34.94-3.81,14.13-5.71,31.02-5.71,50.64v22.2c0,18.75,1.9,35.12,5.71,49.1,3.81,14,9.26,25.64,16.37,34.94,7.1,9.31,15.49,16.26,25.16,20.87,9.67,4.62,20.36,6.93,32.08,6.93,12.3,0,22.92-2.5,31.86-7.47,8.93-4.98,16.4-12.16,22.41-21.54.27-.42.53-.84.79-1.27l1.85,25.88h35.37v-337.5h-38.67ZM1772.99,972.36c-6.88,5.27-15.75,7.91-26.58,7.91-8.94,0-16.59-1.54-22.97-4.61-6.37-3.08-11.61-7.81-15.71-14.18-4.1-6.37-7.1-14.42-9-24.17-1.91-9.74-2.86-21.2-2.86-34.38v-22.2c0-13.18.99-24.68,2.97-34.49,1.97-9.82,4.97-17.95,9-24.39,4.03-6.45,9.3-11.28,15.82-14.51,6.52-3.22,14.25-4.83,23.19-4.83,7.91,0,14.83,1.61,20.76,4.83,5.93,3.23,10.99,7.58,15.16,13.08,2.66,3.51,5.05,7.31,7.14,11.42v118.83c-.11.24-.22.48-.33.71-4.17,8.71-9.7,15.71-16.59,20.98Z"/>
        <path class="cls-5" d="M2034.48,902.93v-22.64c0-18.16-1.57-34.2-4.72-48.12-3.15-13.91-8.02-25.63-14.61-35.15-6.59-9.52-15.16-16.7-25.71-21.54-10.55-4.83-23.29-7.25-38.23-7.25-11.14,0-21.97,2.02-32.52,6.05-10.55,4.03-20,10.47-28.35,19.33-8.35,8.87-14.98,20.55-19.88,35.05-4.91,14.5-7.36,32.23-7.36,53.17v26.81c0,18.16,2.12,33.91,6.37,47.24s10.4,24.36,18.46,33.07c8.05,8.72,17.8,15.2,29.22,19.44,11.43,4.25,24.24,6.38,38.45,6.38s25.6-1.73,35.49-5.17c9.89-3.44,18.24-7.91,25.05-13.4s12.34-11.24,16.59-17.25l-20.44-24.39c-6.3,7.91-13.7,14.39-22.19,19.45-8.5,5.05-19.26,7.58-32.3,7.58-8.94,0-16.88-1.43-23.84-4.29-6.96-2.85-12.82-7.25-17.58-13.18s-8.35-13.48-10.77-22.63c-2.41-9.16-3.62-20.11-3.62-32.85v-5.71h132.49ZM1905.61,842.28c2.42-10.4,5.79-18.57,10.11-24.5,4.32-5.93,9.52-10.11,15.6-12.52,6.08-2.42,12.71-3.63,19.89-3.63,11.28,0,19.99,2.68,26.15,8.02,6.15,5.35,10.58,12.71,13.29,22.08,2.71,9.38,4.36,20.22,4.94,32.52v5.5h-93.34c.46-10.66,1.59-19.82,3.36-27.47Z"/>
        <path class="cls-5" d="M2343.66,854.15v156.22h-38.89v-156.66c0-13.33-1.65-23.7-4.95-31.09-3.29-7.4-7.95-12.6-13.95-15.61-6.01-3-13.18-4.5-21.53-4.5-6.74,0-12.71,1.54-17.91,4.61-5.2,3.08-9.56,7.29-13.07,12.64-3.52,5.35-6.2,11.46-8.02,18.35-1.11,4.16-1.89,8.49-2.32,12.99.01.28.01.56.01.85v158.42h-38.89v-156.44c0-12.45-1.65-22.42-4.95-29.89-3.29-7.47-7.95-12.92-13.95-16.37-6.01-3.44-13.18-5.16-21.53-5.16-9.53,0-17.47,2.13-23.84,6.37-6.38,4.25-11.43,10.11-15.17,17.58-.82,1.64-1.59,3.34-2.3,5.09v178.82h-38.67v-237.74h36.47l1.01,21.63c5.93-7.28,12.96-13.14,21.07-17.57,10.33-5.63,22.38-8.46,36.15-8.46,9.08,0,17.54,1.58,25.38,4.73,7.83,3.15,14.68,8.09,20.54,14.83,3.68,4.23,6.86,9.22,9.53,14.96.86-1.35,1.75-2.67,2.67-3.97,6.66-9.38,14.97-16.81,24.93-22.31,9.96-5.49,21.54-8.24,34.72-8.24,10.84,0,20.44,1.69,28.79,5.06,8.35,3.37,15.41,8.53,21.2,15.49,5.78,6.96,10.14,15.86,13.07,26.69,2.93,10.85,4.4,23.73,4.4,38.68Z"/>
        <path class="cls-5" d="M2533.74,772.63l-78.44,274.44c-1.91,5.85-4.44,12.19-7.58,19-3.16,6.81-7.15,13.3-11.98,19.45-4.83,6.15-10.62,11.17-17.36,15.05s-14.65,5.82-23.73,5.82c-2.78,0-6.34-.44-10.65-1.32-4.33-.87-7.44-1.61-9.34-2.19v-32.96c.88.14,2.27.33,4.17.55,1.9.22,3.3.33,4.18.33,7.61,0,14.09-1.21,19.44-3.63,5.35-2.42,9.92-6.45,13.74-12.08,3.8-5.64,7.03-13.37,9.66-23.18l7-23.69-70.06-235.59h42.41l44.26,172.94,42.97-172.94h41.31Z"/>
      </g>
    </g>
    <g id="icon">
      <g id="left">
        <path class="cls-4" d="M468.28,874.32c10.1,10.9,12.3,18.8,0,42-12.3,23.2-41.3,83.4-54.4,110.9-13,27.5-26.8,18.1-51.5-8-24.7-26.1-286.7-317-286.7-317l133-124.4s249.3,285.6,259.5,296.5h.1Z"/>
        <path class="cls-3" d="M234.88,877.92s-157.2-171.7-200.7-222.4c-61-71.1-33.4-94.4,28.2-166.8C123.98,416.22,456.58,37.92,478.48,14.62c101.5-108-134.8,411-222.5,619.7-59.2,140.9-43.5,216.7-21,243.5h-.1v.1Z"/>
      </g>
      <g id="right">
        <path class="cls-2" d="M485.68,325.52c-10.1-10.9-12.3-18.9,0-42,12.3-23.1,41.3-83.4,54.4-110.9,13-27.5,26.8-18.1,51.5,8,24.7,26.1,286.7,317,286.7,317l-133,124.4s-249.3-285.6-259.5-296.5h-.1Z"/>
        <path class="cls-1" d="M719.08,321.92s157.2,171.7,200.7,222.4c61,71.1,33.4,94.4-28.2,166.8-61.6,72.5-394.2,450.8-416,474-101.5,108,134.8-411,222.5-619.7,59.2-140.9,43.5-216.7,21-243.5h0Z"/>
      </g>
    </g>
  </g>
</svg>